{
    "asset" : {
        "generator" : "Khronos glTF Blender I/O v1.7.33",
        "version" : "2.0"
    },
    "scene" : 0,
    "scenes" : [
        {
            "name" : "Scene",
            "nodes" : [
                1
            ]
        }
    ],
    "nodes" : [
        {
            "mesh" : 0,
            "name" : "SUV_Dashboard_low.002"
        },
        {
            "children" : [
                0
            ],
            "name" : "SUVRoot"
        }
    ],
    "materials" : [
        {
            "doubleSided" : true,
            "name" : "Knob",
            "normalTexture" : {
                "index" : 0
            },
            "pbrMetallicRoughness" : {
                "baseColorTexture" : {
                    "index" : 1
                },
                "metallicRoughnessTexture" : {
                    "index" : 2
                }
            }
        },
        {
            "doubleSided" : true,
            "name" : "Screen",
            "pbrMetallicRoughness" : {
                "baseColorFactor" : [
                    0.011132095009088516,
                    0.011132095009088516,
                    0.011132095009088516,
                    1
                ],
                "metallicFactor" : 0,
                "roughnessFactor" : 0
            }
        }
    ],
    "meshes" : [
        {
            "name" : "Plane.017",
            "primitives" : [
                {
                    "attributes" : {
                        "POSITION" : 0,
                        "NORMAL" : 1,
                        "TEXCOORD_0" : 2,
                        "COLOR_0" : 3
                    },
                    "indices" : 4,
                    "material" : 0
                },
                {
                    "attributes" : {
                        "POSITION" : 5,
                        "NORMAL" : 6,
                        "TEXCOORD_0" : 7,
                        "COLOR_0" : 8
                    },
                    "indices" : 9,
                    "material" : 1
                }
            ]
        }
    ],
    "textures" : [
        {
            "sampler" : 0,
            "source" : 0
        },
        {
            "sampler" : 0,
            "source" : 1
        },
        {
            "sampler" : 0,
            "source" : 2
        }
    ],
    "images" : [
        {
            "bufferView" : 5,
            "mimeType" : "image/png",
            "name" : "SUV_Knobs_Knob_Normal"
        },
        {
            "bufferView" : 6,
            "mimeType" : "image/png",
            "name" : "SUV_Knobs_Knob_BaseColor"
        },
        {
            "bufferView" : 7,
            "mimeType" : "image/png",
            "name" : "SUV_Knobs_Knob_OcclusionRoughnessMetallic"
        }
    ],
    "accessors" : [
        {
            "bufferView" : 0,
            "componentType" : 5126,
            "count" : 2843,
            "max" : [
                0.07550084590911865,
                1.030350923538208,
                0.47979503870010376
            ],
            "min" : [
                -0.074984110891819,
                0.9835370182991028,
                0.43298113346099854
            ],
            "type" : "VEC3"
        },
        {
            "bufferView" : 1,
            "componentType" : 5126,
            "count" : 2843,
            "type" : "VEC3"
        },
        {
            "bufferView" : 2,
            "componentType" : 5126,
            "count" : 2843,
            "type" : "VEC2"
        },
        {
            "bufferView" : 3,
            "componentType" : 5123,
            "count" : 2843,
            "normalized" : true,
            "type" : "VEC4"
        },
        {
            "bufferView" : 4,
            "componentType" : 5123,
            "count" : 3840,
            "type" : "SCALAR"
        },
        {
            "bufferView" : 8,
            "componentType" : 5126,
            "count" : 128,
            "max" : [
                0.07323253154754639,
                1.0286204814910889,
                0.46084925532341003
            ],
            "min" : [
                -0.07271579653024673,
                1.0024827718734741,
                0.43471160531044006
            ],
            "type" : "VEC3"
        },
        {
            "bufferView" : 9,
            "componentType" : 5126,
            "count" : 128,
            "type" : "VEC3"
        },
        {
            "bufferView" : 10,
            "componentType" : 5126,
            "count" : 128,
            "type" : "VEC2"
        },
        {
            "bufferView" : 11,
            "componentType" : 5123,
            "count" : 128,
            "normalized" : true,
            "type" : "VEC4"
        },
        {
            "bufferView" : 12,
            "componentType" : 5123,
            "count" : 372,
            "type" : "SCALAR"
        }
    ],
    "bufferViews" : [
        {
            "buffer" : 0,
            "byteLength" : 34116,
            "byteOffset" : 0
        },
        {
            "buffer" : 0,
            "byteLength" : 34116,
            "byteOffset" : 34116
        },
        {
            "buffer" : 0,
            "byteLength" : 22744,
            "byteOffset" : 68232
        },
        {
            "buffer" : 0,
            "byteLength" : 22744,
            "byteOffset" : 90976
        },
        {
            "buffer" : 0,
            "byteLength" : 7680,
            "byteOffset" : 113720
        },
        {
            "buffer" : 0,
            "byteLength" : 510,
            "byteOffset" : 121400
        },
        {
            "buffer" : 0,
            "byteLength" : 6205,
            "byteOffset" : 121912
        },
        {
            "buffer" : 0,
            "byteLength" : 3327,
            "byteOffset" : 128120
        },
        {
            "buffer" : 0,
            "byteLength" : 1536,
            "byteOffset" : 131448
        },
        {
            "buffer" : 0,
            "byteLength" : 1536,
            "byteOffset" : 132984
        },
        {
            "buffer" : 0,
            "byteLength" : 1024,
            "byteOffset" : 134520
        },
        {
            "buffer" : 0,
            "byteLength" : 1024,
            "byteOffset" : 135544
        },
        {
            "buffer" : 0,
            "byteLength" : 744,
            "byteOffset" : 136568
        }
    ],
    "samplers" : [
        {
            "magFilter" : 9729,
            "minFilter" : 9987
        }
    ],
    "buffers" : [
        {
            "byteLength" : 137312,
            "uri" : "data:application/octet-stream;base64,"
        }
    ]
}
