{
    "asset" : {
        "generator" : "Khronos glTF Blender I/O v1.7.33",
        "version" : "2.0"
    },
    "scene" : 0,
    "scenes" : [
        {
            "name" : "Scene",
            "nodes" : [
                1
            ]
        }
    ],
    "nodes" : [
        {
            "mesh" : 0,
            "name" : "CombinedSeat_Heat",
            "translation" : [
                0,
                -0.019986361265182495,
                0.4055236577987671
            ]
        },
        {
            "children" : [
                0
            ],
            "name" : "Empty",
            "scale" : [
                100,
                100,
                100
            ]
        }
    ],
    "materials" : [
        {
            "doubleSided" : true,
            "name" : "Heater",
            "pbrMetallicRoughness" : {
                "baseColorTexture" : {
                    "index" : 0
                },
                "metallicFactor" : 0,
                "roughnessFactor" : 0.5
            }
        }
    ],
    "meshes" : [
        {
            "name" : "Plane.256",
            "primitives" : [
                {
                    "attributes" : {
                        "POSITION" : 0,
                        "NORMAL" : 1,
                        "TEXCOORD_0" : 2
                    },
                    "indices" : 3,
                    "material" : 0
                }
            ]
        }
    ],
    "textures" : [
        {
            "sampler" : 0,
            "source" : 0
        }
    ],
    "images" : [
        {
            "bufferView" : 4,
            "mimeType" : "image/png",
            "name" : "Heater_Color"
        }
    ],
    "accessors" : [
        {
            "bufferView" : 0,
            "componentType" : 5126,
            "count" : 1321,
            "max" : [
                0.25310781598091125,
                0.09505506604909897,
                0.008031666278839111
            ],
            "min" : [
                -0.2496614158153534,
                0.005804258398711681,
                -0.5814158916473389
            ],
            "type" : "VEC3"
        },
        {
            "bufferView" : 1,
            "componentType" : 5126,
            "count" : 1321,
            "type" : "VEC3"
        },
        {
            "bufferView" : 2,
            "componentType" : 5126,
            "count" : 1321,
            "type" : "VEC2"
        },
        {
            "bufferView" : 3,
            "componentType" : 5123,
            "count" : 6234,
            "type" : "SCALAR"
        }
    ],
    "bufferViews" : [
        {
            "buffer" : 0,
            "byteLength" : 15852,
            "byteOffset" : 0
        },
        {
            "buffer" : 0,
            "byteLength" : 15852,
            "byteOffset" : 15852
        },
        {
            "buffer" : 0,
            "byteLength" : 10568,
            "byteOffset" : 31704
        },
        {
            "buffer" : 0,
            "byteLength" : 12468,
            "byteOffset" : 42272
        },
        {
            "buffer" : 0,
            "byteLength" : 190706,
            "byteOffset" : 54740
        }
    ],
    "samplers" : [
        {
            "magFilter" : 9729,
            "minFilter" : 9987
        }
    ],
    "buffers" : [
        {
            "byteLength" : 245448,
            "uri" : "data:application/octet-stream;base64,"
        }
    ]
}
